<svg width="128" height="128" viewBox="0 0 128 128" fill="none" xmlns="http://www.w3.org/2000/svg">
  <defs>
    <linearGradient id="proofAuraBg" x1="22" y1="16" x2="112" y2="120" gradientUnits="userSpaceOnUse">
      <stop offset="0" stop-color="#1A2B4B"/>
      <stop offset="0.55" stop-color="#15233d"/>
      <stop offset="1" stop-color="#10B981"/>
    </linearGradient>
    <linearGradient id="proofAuraP" x1="42" y1="30" x2="92" y2="92" gradientUnits="userSpaceOnUse">
      <stop offset="0" stop-color="#FFFFFF"/>
      <stop offset="1" stop-color="#E2E8F0"/>
    </linearGradient>
  </defs>
  <rect x="10" y="10" width="108" height="108" rx="32" fill="url(#proofAuraBg)"/>

  <!-- P mark -->
  <path
    d="M42 30H70C85.464 30 94 38.536 94 50C94 61.464 85.464 70 70 70H54V92H42V30ZM54 42V58H68C77.941 58 82 55.5 82 50C82 44.5 77.941 42 68 42H54Z"
    fill="url(#proofAuraP)"
  />

  <!-- Verification badge -->
  <circle cx="94" cy="94" r="18" fill="#10B981"/>
  <path d="M86 94L92 100L103 88" stroke="white" stroke-width="8" stroke-linecap="round" stroke-linejoin="round"/>
</svg>
